# xmcd
#
# Track frame offsets:
# 150
# 38485
# 79585
# 137820
# 202767
# 214693
# 281187
#
# Disc length: 4566 seconds
#
#
# Revision: 0
# Processed by: cddbd v1.5.2PL0 Copyright (c) Steve Scherf et al.
# Submitted via: FreeRIP 2.96 
#
DISCID=5b11d407
DTITLE=Sayers, Dorothy Leigh - Der Tote in der Badewanne
DYEAR=2001
DGENRE=Speech
TTITLE0=11 - Inzwischen hatte Mr Tips
TTITLE1=12 - Gladis H
TTITLE2=13 - Nachdem mehrere Zeugen
TTITLE3=14 - Mr Parker und Sir Julian Freek
TTITLE4=15 - Als Lord Peter
TTITLE5=16 - Als ein untadeliger Lord Peter
TTITLE6=17 - Den Nachmittag
EXTD=gelesen von Christian Brückner
EXTT0=
EXTT1=
EXTT2=
EXTT3=
EXTT4=
EXTT5=
EXTT6=
PLAYORDER=
